<svg xmlns="http://www.w3.org/2000/svg" viewBox="0 0 184.2 57.94"><defs><style>.cls-1{fill:#db9530;}.cls-2{fill:#d17ca8;}.cls-3{fill:#b2c647;}.cls-4{fill:#f2cf54;}.cls-5{fill:#92c4cc;}.cls-6{fill:#7784bc;}.cls-7{fill:#000200;}</style></defs><title>Recurso 1</title><g id="Capa_2" data-name="Capa 2"><g id="Capa_1-2" data-name="Capa 1"><path class="cls-1" d="M39.45,53.16l2-1.85a.14.14,0,0,1,.23,0l2.34,4.38a.15.15,0,0,1-.21.2l-4.38-2.52A.16.16,0,0,1,39.45,53.16Z"/><circle class="cls-2" cx="112.79" cy="5.81" r="1.99"/><circle class="cls-3" cx="131.7" cy="53.3" r="1.99"/><circle class="cls-4" cx="25.58" cy="5.81" r="1.99"/><circle class="cls-2" cx="120.93" cy="53.52" r="1"/><path class="cls-5" d="M3,26.26l2.68-2.83a.15.15,0,0,1,.24,0l2.38,4.61a.15.15,0,0,1-.18.22L3,26.51A.15.15,0,0,1,3,26.26Z"/><path class="cls-2" d="M49.76,56.72l3.84-.6a.15.15,0,0,0,.11-.23L50.9,51.75a.16.16,0,0,0-.28,0l-1,4.73A.15.15,0,0,0,49.76,56.72Z"/><circle class="cls-2" cx="123.78" cy="5.94" r="1.07"/><circle class="cls-2" cx="6.91" cy="52.47" r="2.16"/><path class="cls-1" d="M94.23,4.46,91.91,7.65a.16.16,0,0,1-.28-.06l-.72-4.2a.15.15,0,0,1,.2-.17l3,1A.16.16,0,0,1,94.23,4.46Z"/><path class="cls-6" d="M140.6,52.11l2.75,1.65a.13.13,0,0,1,0,.23L140,55a.13.13,0,0,1-.15-.15l.53-2.61A.12.12,0,0,1,140.6,52.11Z"/><path class="cls-4" d="M181.32,28.66l2.85,3.21a.15.15,0,0,1-.06.24l-4.65,1.8a.15.15,0,0,1-.2-.19l1.81-5A.15.15,0,0,1,181.32,28.66Z"/><path class="cls-4" d="M53.88,4.66l-1.21,2.4a.09.09,0,0,1-.16,0l-1.92-2.8a.1.1,0,0,1,.09-.15l3.13.4A.09.09,0,0,1,53.88,4.66Z"/><path class="cls-6" d="M129.57.68l-1.38,1.77a.09.09,0,0,1-.14,0L126.63.11c0-.06,0-.12.1-.11l2.79.57S129.6.64,129.57.68Z"/><path class="cls-4" d="M151.45,3.77h3.93a.13.13,0,0,1,.12.19l-2,4.28a.14.14,0,0,1-.25,0l-2-4.28A.13.13,0,0,1,151.45,3.77Z"/><path class="cls-4" d="M73.73,52.23v2.5a.16.16,0,0,0,.16.15l3.8-.18a.15.15,0,0,0,.07-.28L74,52.1A.15.15,0,0,0,73.73,52.23Z"/><circle class="cls-2" cx="177.36" cy="6.23" r="1.73"/><circle class="cls-2" cx="157.11" cy="54.12" r="1.73"/><circle class="cls-6" cx="71.91" cy="5.32" r="1.6"/><circle class="cls-4" cx="150.2" cy="54.16" r="0.92"/><circle class="cls-4" cx="6.33" cy="35.7" r="0.83"/><circle class="cls-3" cx="0.83" cy="14.76" r="0.83"/><circle class="cls-4" cx="132.98" cy="5.81" r="1.13"/><path class="cls-6" d="M103.54,51.82h6.06a.16.16,0,0,1,.14.22l-1.69,3.74a.15.15,0,0,1-.24,0l-4.37-3.74A.15.15,0,0,1,103.54,51.82Z"/><path class="cls-6" d="M4.89,45.61,6,41.67a.12.12,0,0,1,.19-.05L8.74,43.5a.1.1,0,0,1,0,.17L5.07,45.73C5,45.78,4.86,45.7,4.89,45.61Z"/><path class="cls-5" d="M86.33,52.84l4.78-1.5a.16.16,0,0,1,.2.17l-1,5.32a.15.15,0,0,1-.26.08l-3.82-3.82A.15.15,0,0,1,86.33,52.84Z"/><path class="cls-2" d="M4.33,5.55h5.3c.11,0,.18,0,.15.1L7,8.76a.24.24,0,0,1-.27,0L4.2,5.67C4.14,5.62,4.21,5.55,4.33,5.55Z"/><circle class="cls-2" cx="6.46" cy="16.72" r="0.85"/><circle class="cls-5" cx="13.48" cy="55.66" r="0.85"/><circle class="cls-3" cx="181.33" cy="12.71" r="0.85"/><circle class="cls-6" cx="164.3" cy="4.2" r="0.85"/><circle class="cls-5" cx="175.21" cy="55.42" r="0.85"/><circle class="cls-5" cx="35.31" cy="8.36" r="0.58"/><circle class="cls-1" cx="181.12" cy="49.9" r="0.58"/><circle class="cls-1" cx="62.42" cy="3.67" r="0.58"/><circle class="cls-5" cx="103.05" cy="5.8" r="0.99"/><circle class="cls-5" cx="83.45" cy="3.45" r="0.9"/><circle class="cls-5" cx="181.98" cy="41.95" r="0.9"/><circle class="cls-5" cx="65.61" cy="54.14" r="0.9"/><circle class="cls-3" cx="166.83" cy="53.77" r="0.87"/><circle class="cls-6" cx="17.46" cy="5.81" r="1.09"/><circle class="cls-3" cx="169.75" cy="5.69" r="0.55"/><circle class="cls-3" cx="98.42" cy="57.39" r="0.55"/><circle class="cls-3" cx="28.72" cy="53.98" r="1.08"/><polygon class="cls-3" points="42.98 4.26 39.64 4.63 41.24 7.49 42.98 4.26"/><polygon class="cls-5" points="183.44 19.05 180.58 19.15 182.19 22.01 183.44 19.05"/><polygon class="cls-6" points="20.35 54.84 20.31 51.99 17.42 53.54 20.35 54.84"/><polygon class="cls-3" points="143.65 7.09 146.3 5.39 143.79 3.66 143.65 7.09"/><path class="cls-7" d="M17.85,41.7a2.28,2.28,0,0,1-.76-.5,2.41,2.41,0,0,1-.5-.74,2.26,2.26,0,0,1-.18-.9V20.69a2.34,2.34,0,0,1,.18-.91,2.27,2.27,0,0,1,1.26-1.25,2.14,2.14,0,0,1,.9-.19h6.62a8.71,8.71,0,0,1,3.4.68,9.13,9.13,0,0,1,2.84,1.88,8.54,8.54,0,0,1,1.9,2.84,9.09,9.09,0,0,1,.67,3.55,8.42,8.42,0,0,1-.68,3.37,8.61,8.61,0,0,1-1.89,2.79A8.86,8.86,0,0,1,25.37,36H21.1v3.56a2.34,2.34,0,0,1-2.35,2.32A2.3,2.3,0,0,1,17.85,41.7Zm7.6-10.4A3.73,3.73,0,0,0,27,31a3.87,3.87,0,0,0,1.29-.89,4.22,4.22,0,0,0,.86-1.29,3.55,3.55,0,0,0,.32-1.5,4.64,4.64,0,0,0-.32-1.64A4,4,0,0,0,27,23.38a3.83,3.83,0,0,0-1.51-.32H21.1V31.3Z"/><path class="cls-7" d="M40.16,41.19a8.75,8.75,0,0,1-4.67-4.62,8.24,8.24,0,0,1-.68-3.31,8.47,8.47,0,0,1,.68-3.35,8.6,8.6,0,0,1,4.66-4.62,8.77,8.77,0,0,1,6.65,0,8.77,8.77,0,0,1,2.77,1.82,9,9,0,0,1,1.87,2.74,8.47,8.47,0,0,1,.72,3.3,2.09,2.09,0,0,1-.64,1.61,2.32,2.32,0,0,1-1.67.61h-9.8a4.39,4.39,0,0,0,1.49,1.45,3.82,3.82,0,0,0,2,.53,4.51,4.51,0,0,0,1.07-.11,2.46,2.46,0,0,0,.78-.32,2.54,2.54,0,0,1,1.36-.42,2.18,2.18,0,0,1,1.64.72,2.83,2.83,0,0,1,.48.78,2.43,2.43,0,0,1,.18.92,2.1,2.1,0,0,1-.35,1.15,3,3,0,0,1-1,.92,8.44,8.44,0,0,1-4.15.88A8.62,8.62,0,0,1,40.16,41.19Zm7.19-9.75a3.86,3.86,0,0,0-1.5-1.7,4.13,4.13,0,0,0-2.26-.63,3.89,3.89,0,0,0-2.23.64,4.11,4.11,0,0,0-1.45,1.69Z"/><path class="cls-7" d="M59.12,41.2a8.58,8.58,0,0,1-4.61-4.61,8.37,8.37,0,0,1-.68-3.33V21.84a2.4,2.4,0,0,1,.19-.92,2.54,2.54,0,0,1,.52-.78,2.29,2.29,0,0,1,.75-.5,2.34,2.34,0,0,1,.91-.18,2.48,2.48,0,0,1,.93.18,2.43,2.43,0,0,1,.78.5,2.6,2.6,0,0,1,.54.78,2.09,2.09,0,0,1,.2.92V24.1h5.42a2.34,2.34,0,0,1,.91.18,2.52,2.52,0,0,1,.77.51,2.57,2.57,0,0,1,.5.76,2.22,2.22,0,0,1,.19.91,2.09,2.09,0,0,1-.69,1.59,2.49,2.49,0,0,1-.77.5,2.53,2.53,0,0,1-.91.17H58.65V33.3a4.06,4.06,0,0,0,.29,1.51,3.56,3.56,0,0,0,.81,1.24,3.68,3.68,0,0,0,2.7,1.13,3.49,3.49,0,0,0,2.44-.83,2.55,2.55,0,0,1,1.78-.79,2,2,0,0,1,1.46.63,2.19,2.19,0,0,1,.66,1.55,2.89,2.89,0,0,1-.22,1.08,3,3,0,0,1-.63.94,7.45,7.45,0,0,1-2.49,1.59,8.62,8.62,0,0,1-6.33-.15Z"/><path class="cls-7" d="M71.27,22.46a2.72,2.72,0,0,1-.56-.82,2.38,2.38,0,0,1-.2-.95A2.54,2.54,0,0,1,73,18.18a2.58,2.58,0,0,1,1,.19,2.34,2.34,0,0,1,.82.54,2.5,2.5,0,0,1,0,3.55A2.66,2.66,0,0,1,74,23a2.46,2.46,0,0,1-2.73-.54Zm.85,19.21a2.52,2.52,0,0,1-.75-.5,2.37,2.37,0,0,1-.53-.75,2.33,2.33,0,0,1-.19-.89V27a2.29,2.29,0,0,1,.19-.89,2.37,2.37,0,0,1,.53-.75,2.41,2.41,0,0,1,.77-.51,2.48,2.48,0,0,1,.93-.18,2.28,2.28,0,0,1,.89.18,2.32,2.32,0,0,1,1.24,1.25,2.44,2.44,0,0,1,.16.9V39.53a2.32,2.32,0,0,1-.18.89,2.29,2.29,0,0,1-.5.75,2.4,2.4,0,0,1-.75.5,2.11,2.11,0,0,1-.9.19A2.22,2.22,0,0,1,72.12,41.67Z"/><path class="cls-7" d="M83.75,41.2A8.53,8.53,0,0,1,81,39.35a8.72,8.72,0,0,1-1.86-2.76,8.54,8.54,0,0,1-.67-3.33V21.84a2.4,2.4,0,0,1,.19-.92,2.54,2.54,0,0,1,.52-.78,2.29,2.29,0,0,1,.75-.5,2.34,2.34,0,0,1,.91-.18,2.48,2.48,0,0,1,.93.18,2.43,2.43,0,0,1,.78.5,3,3,0,0,1,.54.78,2.09,2.09,0,0,1,.2.92V24.1H88.7a2.34,2.34,0,0,1,.91.18,2.52,2.52,0,0,1,.77.51,2.57,2.57,0,0,1,.5.76,2.22,2.22,0,0,1,.19.91,2.09,2.09,0,0,1-.69,1.59,2.49,2.49,0,0,1-.77.5,2.53,2.53,0,0,1-.91.17H83.28V33.3a4.06,4.06,0,0,0,.29,1.51,3.42,3.42,0,0,0,.81,1.24,3.68,3.68,0,0,0,2.7,1.13,3.46,3.46,0,0,0,2.43-.83,2.59,2.59,0,0,1,1.79-.79,2,2,0,0,1,.78.16,2.07,2.07,0,0,1,.68.47,2.19,2.19,0,0,1,.66,1.55,2.89,2.89,0,0,1-.22,1.08,3,3,0,0,1-.63.94,7.45,7.45,0,0,1-2.49,1.59,8.62,8.62,0,0,1-6.33-.15Z"/><path class="cls-5" d="M98.32,20.8a2.63,2.63,0,0,1,.19-1A2.74,2.74,0,0,1,99,19a2.55,2.55,0,0,1,.77-.52,2.45,2.45,0,0,1,1.89,0,2.39,2.39,0,0,1,.76.52,2.5,2.5,0,0,1,.49.8,2.63,2.63,0,0,1,.18,1v5.52a3.46,3.46,0,0,1,.75-.63,5.94,5.94,0,0,1,1-.5,7,7,0,0,1,1.13-.34,5,5,0,0,1,1.13-.13,8.35,8.35,0,0,1,3.4.7,8.71,8.71,0,0,1,2.79,1.89,8.9,8.9,0,0,1,1.88,2.8,8.68,8.68,0,0,1,0,6.83,8.82,8.82,0,0,1-4.67,4.66,8.63,8.63,0,0,1-6.81,0,9,9,0,0,1-2.8-1.88A8.65,8.65,0,0,1,99,36.94a8.33,8.33,0,0,1-.7-3.41Zm4.81,12.73a3.68,3.68,0,0,0,.32,1.55,3.93,3.93,0,0,0,2.14,2.1,4,4,0,0,0,3.09,0,3.87,3.87,0,0,0,1.26-.84,4.06,4.06,0,0,0,.85-1.26,3.91,3.91,0,0,0,0-3.1,4,4,0,0,0-2.11-2.11,4.13,4.13,0,0,0-3.09,0,4.15,4.15,0,0,0-1.28.85,3.92,3.92,0,0,0-.86,1.26A3.65,3.65,0,0,0,103.13,33.53Z"/><path class="cls-5" d="M124.1,36.35a4.27,4.27,0,0,0,2,.6,4,4,0,0,0,2-.47,4.74,4.74,0,0,0,.94-.63,3.75,3.75,0,0,0,.52-.64,2.62,2.62,0,0,1,.48-.63,2.22,2.22,0,0,1,.54-.4,2.1,2.1,0,0,1,.92-.26,2.12,2.12,0,0,1,.9.13,2.54,2.54,0,0,1,1.41,1.2,2.2,2.2,0,0,1,.24,1.19,2.82,2.82,0,0,1-.47,1.33,6.27,6.27,0,0,1-1.25,1.4,11.25,11.25,0,0,1-2.07,1.38,8.65,8.65,0,0,1-3.35,1,9.25,9.25,0,0,1-3.37-.34,8.88,8.88,0,0,1-3-1.56A8.45,8.45,0,0,1,118.37,37a8.56,8.56,0,0,1-1-3.36,8.89,8.89,0,0,1,2-6.35,8.91,8.91,0,0,1,6-3.22,8.9,8.9,0,0,1,3.34.33,9,9,0,0,1,3,1.55,8.42,8.42,0,0,1,2.25,2.63,2.15,2.15,0,0,1,.19,1.77,2.32,2.32,0,0,1-1.21,1.34Zm-3.29-20.08a3,3,0,0,1,.51-.35,2.4,2.4,0,0,1,.9-.27,3,3,0,0,1,.94.09,2.4,2.4,0,0,1,.84.43,2.27,2.27,0,0,1,.63.77,2.3,2.3,0,0,1,.25,1.5,2.35,2.35,0,0,1-.75,1.35l-2.1,2a2.61,2.61,0,0,1-.27.22l-.29.18a2.27,2.27,0,0,1-.89.26,2.22,2.22,0,0,1-.89-.09,2.7,2.7,0,0,1-.81-.45,2.48,2.48,0,0,1-.62-.77,2.34,2.34,0,0,1-.26-1.51,2.43,2.43,0,0,1,.77-1.4Zm8,13.05a4.08,4.08,0,0,0-2.15-.81,4.17,4.17,0,0,0-2.35.52,3.87,3.87,0,0,0-1.72,1.67,4.3,4.3,0,0,0-.47,2.18Z"/><path class="cls-5" d="M137.39,20.8a2.63,2.63,0,0,1,.19-1,2.57,2.57,0,0,1,.52-.8,2.39,2.39,0,0,1,.76-.52,2.34,2.34,0,0,1,.95-.19,2.36,2.36,0,0,1,1.7.71,2.5,2.5,0,0,1,.49.8,2.63,2.63,0,0,1,.18,1v5.52a4,4,0,0,1,.75-.63,5.94,5.94,0,0,1,1-.5,7.35,7.35,0,0,1,1.13-.34,5,5,0,0,1,1.13-.13,8.35,8.35,0,0,1,3.4.7,8.83,8.83,0,0,1,4.67,4.69,8.68,8.68,0,0,1,0,6.83,8.75,8.75,0,0,1-1.88,2.78,8.85,8.85,0,0,1-2.79,1.88,8.63,8.63,0,0,1-6.81,0,9,9,0,0,1-2.8-1.88,8.65,8.65,0,0,1-1.9-2.78,8.49,8.49,0,0,1-.7-3.41Zm4.81,12.73a3.84,3.84,0,0,0,.32,1.55,4.09,4.09,0,0,0,.86,1.26,4,4,0,0,0,1.28.84,4,4,0,0,0,4.35-.84,4.06,4.06,0,0,0,.85-1.26,3.91,3.91,0,0,0,0-3.1,4,4,0,0,0-2.11-2.11,4.13,4.13,0,0,0-3.09,0,4.15,4.15,0,0,0-1.28.85,4.09,4.09,0,0,0-.86,1.26A3.8,3.8,0,0,0,142.2,33.53Z"/><path class="cls-5" d="M163.17,36.35a4.31,4.31,0,0,0,2,.6,4,4,0,0,0,2-.47,4.46,4.46,0,0,0,.94-.63,3.82,3.82,0,0,0,.53-.64,2.36,2.36,0,0,1,.47-.63,2.27,2.27,0,0,1,.55-.4,2,2,0,0,1,.91-.26,2.12,2.12,0,0,1,.9.13,2.33,2.33,0,0,1,.81.46,2.51,2.51,0,0,1,.6.74,2.3,2.3,0,0,1,.25,1.19,2.84,2.84,0,0,1-.48,1.33,6.46,6.46,0,0,1-1.24,1.4,11.71,11.71,0,0,1-2.08,1.38,8.65,8.65,0,0,1-3.35,1,9.25,9.25,0,0,1-3.37-.34,8.83,8.83,0,0,1-3-1.56A8.35,8.35,0,0,1,157.44,37a8.56,8.56,0,0,1-1-3.36,9,9,0,0,1,.37-3.37,8.82,8.82,0,0,1,1.61-3,8.86,8.86,0,0,1,6-3.22,8.84,8.84,0,0,1,3.33.33,8.94,8.94,0,0,1,3,1.55A8.42,8.42,0,0,1,173,28.54a2.19,2.19,0,0,1,.2,1.77A2.39,2.39,0,0,1,172,31.65Zm-3.29-20.08a3,3,0,0,1,.51-.35,2.45,2.45,0,0,1,.91-.27,2.89,2.89,0,0,1,.93.09,2.4,2.4,0,0,1,.84.43,2.27,2.27,0,0,1,.63.77,2.3,2.3,0,0,1,.25,1.5,2.35,2.35,0,0,1-.75,1.35l-2.1,2a2.61,2.61,0,0,1-.27.22l-.29.18a2.38,2.38,0,0,1-1.78.17,2.7,2.7,0,0,1-.81-.45,2.48,2.48,0,0,1-.62-.77,2.37,2.37,0,0,1,.51-2.91Zm8,13.05a4,4,0,0,0-2.15-.81,4.17,4.17,0,0,0-2.35.52,3.87,3.87,0,0,0-1.72,1.67,4.3,4.3,0,0,0-.47,2.18Z"/></g></g></svg>